<svg width="24" height="24" viewBox="0 0 24 24" fill="none" xmlns="http://www.w3.org/2000/svg">
<path d="M6 24C9.31371 24 12 21.3137 12 18C12 14.6863 9.31371 12 6 12C2.68629 12 0 14.6863 0 18C0 21.3137 2.68629 24 6 24Z" fill="black"/>
<path d="M18 12C21.3137 12 24 9.31371 24 6C24 2.68629 21.3137 0 18 0C14.6863 0 12 2.68629 12 6C12 9.31371 14.6863 12 18 12Z" fill="black"/>
<path d="M2.16001 10C2.25583 10.0359 2.35772 10.0529 2.46001 10.05C2.68059 10.0601 2.89831 9.99691 3.07921 9.87028C3.2601 9.74365 3.394 9.56071 3.46001 9.35C3.81995 8.19967 4.40728 7.13336 5.18716 6.21434C5.96704 5.29532 6.92358 4.54231 8.00001 4V5C8.00001 5.26522 8.10537 5.51957 8.29291 5.70711C8.48044 5.89464 8.7348 6 9.00001 6C9.26523 6 9.51958 5.89464 9.70712 5.70711C9.89466 5.51957 10 5.26522 10 5V1C10 0.734784 9.89466 0.48043 9.70712 0.292893C9.51958 0.105357 9.26523 0 9.00001 0H5.00001C4.7348 0 4.48044 0.105357 4.29291 0.292893C4.10537 0.48043 4.00001 0.734784 4.00001 1C4.00001 1.26522 4.10537 1.51957 4.29291 1.70711C4.48044 1.89464 4.7348 2 5.00001 2H7.42001C6.01919 2.64011 4.76839 3.56725 3.7486 4.72141C2.72881 5.87557 1.96275 7.23101 1.50001 8.7C1.45355 8.82847 1.4339 8.96509 1.44228 9.10145C1.45066 9.2378 1.48689 9.37099 1.54873 9.4928C1.61058 9.61462 1.69672 9.72247 1.80186 9.8097C1.90699 9.89693 2.02888 9.9617 2.16001 10Z" fill="black"/>
<path d="M15 18C14.7348 18 14.4804 18.1054 14.2929 18.2929C14.1054 18.4804 14 18.7348 14 19V23C14 23.2652 14.1054 23.5196 14.2929 23.7071C14.4804 23.8946 14.7348 24 15 24H19C19.2652 24 19.5196 23.8946 19.7071 23.7071C19.8946 23.5196 20 23.2652 20 23C20 22.7348 19.8946 22.4804 19.7071 22.2929C19.5196 22.1054 19.2652 22 19 22H16.57C18.1462 21.2808 19.5303 20.1994 20.6095 18.844C21.6886 17.4885 22.4323 15.8973 22.78 14.2C22.8063 14.0687 22.8064 13.9335 22.7804 13.8021C22.7544 13.6707 22.7028 13.5457 22.6285 13.4343C22.5542 13.3229 22.4587 13.2272 22.3475 13.1527C22.2362 13.0781 22.1113 13.0263 21.98 13C21.8487 12.9737 21.7135 12.9736 21.5821 12.9996C21.4507 13.0256 21.3257 13.0772 21.2143 13.1515C21.1029 13.2258 21.0072 13.3213 20.9327 13.4325C20.8581 13.5438 20.8063 13.6687 20.78 13.8C20.5085 15.1357 19.9372 16.3923 19.1092 17.475C18.2812 18.5577 17.218 19.4382 16 20.05V19C16 18.7348 15.8946 18.4804 15.7071 18.2929C15.5196 18.1054 15.2652 18 15 18Z" fill="black"/>
</svg>
