<svg width="24" height="24" viewBox="0 0 24 24" fill="none" xmlns="http://www.w3.org/2000/svg">
<path d="M23.67 9.56L21.67 7.74L14 0.78C13.45 0.288045 12.7379 0.0160675 12 0.0160675C11.2621 0.0160675 10.55 0.288045 10 0.78L2.35 7.78L0.349999 9.6C0.215325 9.73665 0.122804 9.90916 0.0834737 10.0969C0.0441435 10.2847 0.0596646 10.4799 0.128185 10.6591C0.196706 10.8383 0.315334 10.994 0.469916 11.1076C0.624499 11.2213 0.808511 11.2881 1 11.3C1.25329 11.2886 1.49277 11.1813 1.67 11L2 10.7V21C2 21.7956 2.31607 22.5587 2.87868 23.1213C3.44129 23.6839 4.20435 24 5 24H19C19.7956 24 20.5587 23.6839 21.1213 23.1213C21.6839 22.5587 22 21.7956 22 21V10.74L22.33 11.04C22.5134 11.2067 22.7522 11.2994 23 11.3C23.2016 11.2995 23.3984 11.238 23.5644 11.1237C23.7305 11.0094 23.8582 10.8475 23.9306 10.6593C24.0031 10.4712 24.0169 10.2655 23.9704 10.0693C23.9239 9.87315 23.8192 9.69561 23.67 9.56Z" fill="black"/>
</svg>
