<svg width="28" height="22" viewBox="0 0 28 22" fill="none" xmlns="http://www.w3.org/2000/svg">
<path d="M18.13 12.93V13.93C18.13 14.5866 18.0007 15.2368 17.7494 15.8434C17.4981 16.45 17.1298 17.0012 16.6655 17.4655C16.2012 17.9298 15.65 18.2981 15.0434 18.5494C14.4368 18.8007 13.7866 18.93 13.13 18.93H9.87C9.85458 19.4769 9.6899 20.0091 9.39379 20.4692C9.09767 20.9292 8.6814 21.2995 8.19 21.54C7.78016 21.7448 7.32815 21.8509 6.87 21.85C6.19227 21.854 5.53315 21.6284 5 21.21L1.29 18.3C0.928669 18.0196 0.636241 17.6602 0.435072 17.2495C0.233904 16.8387 0.129322 16.3874 0.129322 15.93C0.129322 15.4726 0.233904 15.0213 0.435072 14.6105C0.636241 14.1998 0.928669 13.8404 1.29 13.56L5 10.65C5.447 10.2933 5.98665 10.0717 6.55538 10.0115C7.1241 9.95123 7.69819 10.0548 8.21 10.31C8.89153 10.636 9.4164 11.2184 9.67 11.93H17.1C17.2338 11.926 17.3671 11.9489 17.4919 11.9973C17.6167 12.0458 17.7305 12.1188 17.8266 12.2121C17.9226 12.3053 17.999 12.4169 18.0511 12.5403C18.1032 12.6636 18.1301 12.7961 18.13 12.93Z" fill="black"/>
<path d="M27.87 6.07001C27.8701 6.52734 27.7656 6.97863 27.5646 7.3894C27.3635 7.80016 27.0712 8.15952 26.71 8.44001L23 11.35C22.4594 11.7701 21.7946 11.9987 21.11 12C20.6519 12.0009 20.1998 11.8948 19.79 11.69C19.1085 11.364 18.5836 10.7817 18.33 10.07H10.87C10.6048 10.07 10.3504 9.96466 10.1629 9.77712C9.97536 9.58959 9.87 9.33523 9.87 9.07001V8.07001C9.87 6.74393 10.3968 5.47216 11.3345 4.53448C12.2722 3.5968 13.5439 3.07001 14.87 3.07001H18.13C18.1422 2.51096 18.3104 1.96644 18.6156 1.4979C18.9208 1.02935 19.3508 0.655434 19.8573 0.418337C20.3637 0.181241 20.9263 0.0904046 21.4816 0.156079C22.0369 0.221754 22.5629 0.441325 23 0.790015L26.71 3.70001C27.0712 3.98051 27.3635 4.33987 27.5646 4.75063C27.7656 5.1614 27.8701 5.61269 27.87 6.07001Z" fill="black"/>
</svg>
